<svg width="163" height="35" viewBox="0 0 163 35" fill="none" xmlns="http://www.w3.org/2000/svg">
<g clip-path="url(#clip0_2822_623)">
<path d="M144.669 34.9811L134.465 7.90234H142.225L148.355 26.4717L154.485 7.90234H162.245L152.041 34.9811H144.669Z" fill="#ABABAB"/>
<path d="M119.023 19.6003V34.9796H126.204V18.7422L119.023 19.6003Z" fill="#ABABAB"/>
<path d="M38.8892 7.92167V0H30.1211L24.1992 7.92167H38.8892Z" fill="#ABABAB"/>
<path d="M105.064 7.92167C103.334 1.94952 97.5381 0 90.3089 0H76.4258V7.92167H105.062H105.064Z" fill="#ABABAB"/>
<path d="M14.6923 7.92167L8.7705 0H0V7.92167H14.6923Z" fill="#ABABAB"/>
<path d="M70.7668 0H45.5078V7.92167H70.7668V0Z" fill="#ABABAB"/>
<path d="M76.4297 14.2852V34.9813H85.7007V23.9884H90.3105C98.2133 23.9441 104.406 21.6518 105.442 14.2852H76.4297Z" fill="#ABABAB"/>
<path d="M54.7812 21.288H69.2653V14.2852H45.5078V34.9813H71.0685V26.985H54.7812V21.288Z" fill="#ABABAB"/>
<path d="M19.4471 14.2852H19.4448H0V34.9813H9.271V16.3419L16.7902 25.7771H22.1017L29.6209 16.3932V34.9813H38.8896V14.2852H19.4471Z" fill="#ABABAB"/>
<path d="M132.719 11.1042C132.719 9.44622 127.677 8.08435 121.24 7.93977L113.784 7.92578C113.094 7.92578 112.535 9.35061 112.535 11.1066C112.535 12.8625 113.094 14.2874 113.784 14.2874L121.24 14.2734C127.674 14.1265 132.719 12.7669 132.719 11.1089V11.1042Z" fill="#ABABAB"/>
</g>
<defs>
<clipPath id="clip0_2822_623">
<rect width="162.245" height="34.9794" fill="white"/>
</clipPath>
</defs>
</svg>
