<svg width="104" height="37" viewBox="0 0 104 37" fill="none" xmlns="http://www.w3.org/2000/svg">
<g clip-path="url(#clip0_2822_635)">
<path d="M11.4114 36.4536C8.32862 36.3328 5.80755 35.4978 3.8358 33.9486C3.45924 33.6529 2.56234 32.7647 2.26233 32.3912C1.46267 31.3966 0.919554 30.4286 0.556445 29.3552C-0.560812 26.0491 0.0133343 21.7105 2.19819 16.9503C4.06856 12.8746 6.95378 8.83174 11.9876 3.23349C12.7294 2.40977 14.938 0 14.9515 0C14.9566 0 14.8366 0.206698 14.6846 0.457396C13.3759 2.62568 12.2556 5.18075 11.6452 7.39201C10.6656 10.9407 10.7835 13.9859 11.9918 16.3476C12.8256 17.9745 14.2542 19.3836 15.8608 20.1623C18.6736 21.5252 22.7909 21.6378 27.8206 20.4918C28.1672 20.4119 45.3233 15.9076 65.947 10.4802C86.5707 5.05285 103.447 0.616001 103.45 0.620094C103.456 0.62521 55.5358 20.9072 30.6593 31.4294C26.7199 33.0952 25.6658 33.5158 23.814 34.1594C19.0791 35.8038 14.8387 36.5886 11.4104 36.4536H11.4114Z" fill="#ABABAB"/>
</g>
<defs>
<clipPath id="clip0_2822_635">
<rect width="103.45" height="36.4679" fill="white"/>
</clipPath>
</defs>
</svg>
