<svg width="110" height="56" viewBox="0 0 110 56" fill="none" xmlns="http://www.w3.org/2000/svg">
<path d="M107.754 31.2188H1.77992C0.796897 31.2188 0 32.0156 0 32.9987V54.2208C0 55.2038 0.796897 56.0007 1.77992 56.0007H107.754C108.737 56.0007 109.534 55.2038 109.534 54.2208V32.9987C109.534 32.0156 108.737 31.2188 107.754 31.2188Z" fill="white"/>
<path d="M31.9296 28.2596L46.9357 0H37.7075L18.4844 28.2596H31.9296Z" fill="white"/>
<path d="M46.9289 0H39.3438V28.2596H46.9289V0Z" fill="white"/>
<path d="M73.664 28.2596L88.6701 0H79.4145L60.2188 28.2596H73.664Z" fill="white"/>
<path d="M88.6633 0H81.0781V28.2596H88.6633V0Z" fill="white"/>
<path d="M94.5234 28.2596L107.311 4.16227L105.723 0H109.529H100.274L81.0781 28.2596H94.5234Z" fill="white"/>
<path d="M109.523 0H101.938V28.2596H109.523V0Z" fill="white"/>
<path d="M52.789 28.2596L67.7951 0H58.5395L39.3438 28.2596H52.789Z" fill="white"/>
<path d="M67.7883 0H60.2031V28.2596H67.7883V0Z" fill="white"/>
<path d="M64.2966 20.291H50.9609V25.576H64.2966V20.291Z" fill="white"/>
<path d="M13.4452 28.2596L28.4513 0H19.2231L0 28.2596H13.4452Z" fill="white"/>
<path d="M18.4905 28.2596L3.48438 0H12.74L31.9357 28.2596H18.4905Z" fill="white"/>
<path d="M13.6575 48.6855L9.38568 40.2241V50.3285H4.70312V36.5547H12.6717L16.834 44.7971L20.9415 36.5547H29.0196V50.3285H23.8167V40.1693L19.5723 48.6855H13.6575Z" fill="black"/>
<path d="M31.9883 36.5547H49.1577V40.1419H37.1638V41.648H46.2551V45.0435H37.1638V46.7413H49.2398V50.3285H31.9609V36.5547H31.9883Z" fill="black"/>
<path d="M51.6875 36.5547H65.078C66.3102 36.5547 67.4329 36.6642 68.3914 36.8833C69.3772 37.1024 70.1713 37.4857 70.8285 38.006C71.4857 38.5263 71.9786 39.2383 72.3346 40.1145C72.6906 40.9908 72.8549 42.0861 72.8549 43.4005C72.8549 44.7149 72.6906 45.8376 72.3346 46.7413C71.9786 47.645 71.4857 48.3295 70.8285 48.8772C70.1713 49.3975 69.3772 49.7809 68.3914 49.9999C67.4056 50.219 66.3102 50.3285 65.078 50.3285H51.6875V36.5547ZM64.2839 46.3306C65.4066 46.3306 66.2555 46.1663 66.8305 45.8377C67.4056 45.509 67.6794 44.7971 67.6794 43.7291V42.9624C67.6794 42.0314 67.4056 41.4015 66.8305 41.0456C66.2555 40.717 65.4066 40.5253 64.2839 40.5253H56.8903V46.3306H64.2839Z" fill="black"/>
<path d="M75.1953 36.5547H80.3982V50.3285H75.1953V36.5547Z" fill="black"/>
<path d="M89.9846 36.5547H96.6387L104.854 50.3285H99.5688L97.8984 47.4807H88.3963L86.726 50.3285H81.7422L90.0394 36.5547H89.9846ZM90.4501 44.003H95.8172L93.1611 39.4573L90.4501 44.003Z" fill="black"/>
</svg>
