<svg width="714" height="360" viewBox="0 0 714 360" fill="none" xmlns="http://www.w3.org/2000/svg">
<path d="M713.32 200.189H0V360.004H713.32V200.189Z" fill="white"/>
<path d="M88.9299 312.905L61.0993 258.271V323.478H30.5312V234.57H82.4235L109.48 287.77L136.28 234.57H188.965V323.478H155.144V257.878L127.433 312.905H88.9299Z" fill="black"/>
<path d="M208.188 234.584H320.065V257.774H242.009V267.423H301.201V289.336H242.009V300.302H320.7V323.492H208.188V234.584Z" fill="black"/>
<path d="M336.625 234.59H423.886C431.959 234.59 439.16 235.297 445.488 236.693C451.816 238.127 457.112 240.545 461.357 243.984C465.602 247.423 468.855 251.982 471.116 257.642C473.358 263.302 474.469 270.397 474.469 278.906C474.469 287.416 473.358 294.668 471.116 300.426C468.855 306.184 465.602 310.763 461.357 314.143C457.112 317.524 451.816 319.941 445.488 321.356C439.16 322.79 431.959 323.478 423.886 323.478H336.625V234.57V234.59ZM418.57 297.714C425.869 297.714 431.364 296.653 435.093 294.491C438.823 292.349 440.667 287.789 440.667 280.832V275.939C440.667 269.906 438.823 265.818 435.093 263.617C431.364 261.435 425.85 260.335 418.57 260.335H370.446V297.714H418.57Z" fill="black"/>
<path d="M489.734 234.584H523.556V323.492H489.734V234.584Z" fill="black"/>
<path d="M585.959 234.584H629.263L682.722 323.492H648.266L637.336 305.195H575.426L564.496 323.492H531.984L585.959 234.584ZM588.955 282.654H623.927L606.609 253.254L588.935 282.654H588.955Z" fill="black"/>
<path d="M699.613 0H648.058L579.285 97.1227V0H514.043L445.27 97.1227V0H380.028L311.254 97.1227V0H246.012L161.905 118.799L136.336 82.6781L178.866 0H127.311L102.555 34.9618L77.7987 0H26.2437L68.7731 82.6781L0 179.801H86.3879L102.555 148.377L118.721 179.801H205.109L252.737 87.1982V179.801H339.125L350.055 158.537H386.752V179.801H473.14L520.767 87.1982V179.801H607.155L654.783 87.1982V179.801H713.32V0H699.633H699.613ZM360.984 137.273L386.732 87.1982V137.273H360.984Z" fill="white"/>
</svg>
